<svg width="79" height="79" xmlns="http://www.w3.org/2000/svg"><path d="M18.687 10.43l15.464 30.906c.31.682.743 1.322 1.3 1.88.558.557 1.198.99 1.714 1.217L68.237 59.98 52.484 75.732a8.025 8.025 0 01-11.355 0L2.934 37.538a8.025 8.025 0 010-11.356L18.687 10.43zm19.345-7.99l10.839 10.838 2.065-2.064a5.845 5.845 0 018.258 0l8.258 8.259a5.845 5.845 0 010 8.258l-2.064 2.064 10.839 10.84a8.025 8.025 0 010 11.355l-4.728 4.728L39.126 40.53a1.963 1.963 0 01-.578-.413 1.963 1.963 0 01-.413-.578L21.95 7.168l4.728-4.728a8.025 8.025 0 0111.355 0zm17.033 12.903l-2.064 2.065 8.258 8.258 2.064-2.064-8.258-8.259z" fill="#D96C47"/></svg>